# xmcd CD database file
#
# Track frame offsets:
#	150
#	17227
#	37272
#	51490
#	78570
#	98985
#	118952
#	139460
#	159465
#	172952
#	191697
#	210210
#
# Disc length: 3014 seconds
#
# Revision: 2
# Processed by: cddbd v1.4PL0 Copyright (c) Steve Scherf et al.
# Submitted via: CDex 1.40Release
#
DISCID=ae0bc40c
DTITLE=Joanna Connor - Big Girl Blues
DYEAR=1996
DGENRE=Blues
TTITLE0=Big Girls Blues
TTITLE1=They Love Each Other
TTITLE2=Sweet Baby
TTITLE3=Heart of the Blues
TTITLE4=You Oughta Know
TTITLE5=You Should Be my Lover
TTITLE6=43rd St.
TTITLE7=Sister Spirit
TTITLE8=Lonley Woman Blues
TTITLE9=Juiey
TTITLE10=Meditations
TTITLE11=Smoke It Up
EXTD=Ruf Records 1010\n1996 YEAR: 1996 ID3G: 0
EXTT0=
EXTT1=
EXTT2=
EXTT3=
EXTT4=
EXTT5=
EXTT6=
EXTT7=
EXTT8=
EXTT9=
EXTT10=
EXTT11=
PLAYORDER=
